<mxfile host="app.diagrams.net" modified="2024-05-07T01:51:42.691Z" agent="Mozilla/5.0 (Macintosh; Intel Mac OS X 10_15_7) AppleWebKit/537.36 (KHTML, like Gecko) Chrome/124.0.0.0 Safari/537.36" version="22.1.15" etag="RUDPhKc8SL03C510JBBZ" type="github">
  <diagram name="第 1 页" id="isFK639Tgf_O4ZJneW_m">
    <mxGraphModel>
      <root>
        <mxCell id="0" />
        <mxCell id="1" parent="0" />
      </root>
    </mxGraphModel>
  </diagram>
</mxfile>
